<svg height="512pt" viewBox="0 0 512 512" width="512pt" xmlns="http://www.w3.org/2000/svg"><path d="m162.296875 505.039062c-33.746094-35.136718-37.246094-82.339843-37.390625-98.476562l-90.582031 38.539062c-20.847657 8.871094-34.32031275 29.242188-34.324219 51.898438v14.992188l169.601562.003906c-2.523437-2.207032-4.964843-4.519532-7.304687-6.957032zm0 0"/><path d="m477.675781 445.101562-90.582031-38.539062c-.144531 16.140625-3.636719 63.332031-37.390625 98.472656-2.339844 2.441406-4.78125 4.757813-7.308594 6.960938l169.605469.003906v-15.003906c-.003906-22.652344-13.476562-43.023438-34.324219-51.894532zm0 0"/><path d="m357.070312 384.25c-26.355468 25.527344-62.230468 39.582031-101.070312 39.582031s-74.714844-14.054687-101.070312-39.582031v19.222656c-.136719 4.878906-.550782 50.011719 29.003906 80.78125 17.679687 18.410156 41.929687 27.742188 72.066406 27.742188 30.140625 0 54.386719-9.332032 72.066406-27.742188 29.554688-30.769531 29.144532-75.902344 29.003906-80.78125zm0 0"/><path d="m113.953125 286.832031v-107.09375c0-10.589843 1.023437-20.984375 3.03125-31.085937h-13.03125c-24.8125 0-45 20.1875-45 45v64.507812c0 24.816406 20.1875 45.003906 45 45.003906h10.957031c-.628906-5.375-.957031-10.824218-.957031-16.332031zm0 0"/><path d="m408.046875 148.652344h-13.429687c2.273437 10.738281 3.429687 21.804687 3.429687 33.128906v105.050781c0 5.507813-.328125 10.957031-.957031 16.328125h10.957031c24.8125 0 45-20.183594 45-45v-64.507812c0-24.8125-20.1875-45-45-45zm0 0"/><path d="m256 0c-89.503906 0-142.570312 40.855469-155.402344 118.734375 1.113282-.046875 2.230469-.082031 3.355469-.082031h22.285156c6.488281-15.324219 14.554688-27.023438 24.515625-35.570313 12.164063-10.4375 26.570313-15.726562 42.820313-15.726562 17.351562 0 33.328125 6.203125 46.164062 11.1875 5.300781 2.0625 13.265625 5.152343 16.253907 5.441406 2.914062-.292969 10.640624-3.363281 15.78125-5.40625 12.589843-5 28.257812-11.226563 45.503906-11.226563 37 0 57.167968 27.59375 67.664062 51.296876h23.105469c1.125 0 2.242187.039062 3.355469.085937-12.832032-77.878906-65.898438-118.734375-155.402344-118.734375zm0 0"/><path d="m341.15625 324.121094c-14.007812 9.34375-30.316406 14.28125-47.15625 14.28125h-23c-8.28125 0-15-6.714844-15-15s6.71875-15 15-15h23c10.894531 0 21.449219-3.195313 30.511719-9.238282l43.535156-29.03125v-88.351562c0-17.171875-3.296875-34.226562-10.097656-49.996094-28.109375-65.1875-73.5625-17.789062-101.949219-17.789062-29.25 0-79.058594-50.335938-105.121094 24.074218-4.6875 13.378907-6.925781 27.492188-6.925781 41.667969v107.089844c0 59.097656 46.988281 107.003906 112.046875 107.003906 57.269531 0 100.527344-37.125 110.066406-86.324219zm0 0"/></svg>