<svg id="Capa_1" enable-background="new 0 0 512 512" height="512" viewBox="0 0 512 512" width="512" xmlns="http://www.w3.org/2000/svg"><circle cx="256" cy="55" r="55"/><circle cx="417" cy="317" r="55"/><circle cx="95" cy="317" r="55"/><path d="m473.347 380.564c-15.012 13.322-34.745 21.436-56.347 21.436s-41.335-8.114-56.347-21.436c-6.143 4.541-11.715 9.809-16.604 15.666l-73.049-58.439v-87.791h65c8.284 0 15-6.716 15-15v-40c0-31.305-15.224-59.118-38.653-76.436-15.012 13.322-34.745 21.436-56.347 21.436s-41.335-8.114-56.347-21.436c-23.429 17.318-38.653 45.131-38.653 76.436v40c0 8.284 6.716 15 15 15h65v87.791l-73.05 58.44c-4.888-5.857-10.46-11.126-16.604-15.666-15.011 13.321-34.744 21.435-56.346 21.435s-41.335-8.114-56.347-21.436c-23.429 17.318-38.653 45.131-38.653 76.436v40c0 8.284 6.716 15 15 15h160c8.284 0 15-6.716 15-15v-40c0-12.251-2.341-23.963-6.583-34.725l72.583-58.067 72.583 58.067c-4.242 10.762-6.583 22.474-6.583 34.725v40c0 8.284 6.716 15 15 15h160c8.284 0 15-6.716 15-15v-40c0-31.305-15.224-59.118-38.653-76.436z"/></svg>