<svg xmlns="http://www.w3.org/2000/svg" height="512pt" version="1.1" viewBox="0 0 512 512" width="512pt">
<g id="surface1">
<path d="M 72.269531 259.066406 L 186.800781 259.066406 L 186.800781 201.800781 C 186.800781 193.515625 193.519531 186.800781 201.800781 186.800781 L 237.933594 186.800781 C 249.585938 186.800781 259.066406 177.320312 259.066406 165.664062 L 259.066406 21.132812 C 259.066406 9.480469 249.585938 0 237.933594 0 C 226.28125 0 216.800781 9.480469 216.800781 21.132812 L 216.800781 124.898438 C 216.800781 133.183594 210.085938 139.898438 201.800781 139.898438 L 21.132812 139.898438 C 9.480469 139.898438 0 149.382812 0 161.035156 L 0 305.566406 C 0 317.21875 9.480469 326.699219 21.132812 326.699219 C 32.785156 326.699219 42.269531 317.222656 42.269531 305.566406 L 42.269531 201.800781 C 42.269531 193.515625 48.984375 186.800781 57.269531 186.800781 C 65.554688 186.800781 72.269531 193.515625 72.269531 201.800781 Z M 72.269531 259.066406 " style=" stroke:none;fill-rule:nonzero;fill:rgb(0%,0%,0%);fill-opacity:1;" />
<path d="M 129.53125 109.898438 C 159.832031 109.898438 184.480469 85.25 184.480469 54.949219 C 184.480469 24.652344 159.832031 0 129.53125 0 C 99.234375 0 74.582031 24.652344 74.582031 54.949219 C 74.582031 85.25 99.234375 109.898438 129.53125 109.898438 Z M 129.53125 109.898438 " style=" stroke:none;fill-rule:nonzero;fill:rgb(0%,0%,0%);fill-opacity:1;" />
<path d="M 216.800781 346.335938 L 216.800781 382.46875 C 216.800781 394.121094 226.28125 403.601562 237.933594 403.601562 C 249.585938 403.601562 259.066406 394.121094 259.066406 382.46875 L 259.066406 310.199219 C 259.066406 298.546875 249.585938 289.066406 237.933594 289.066406 L 72.269531 289.066406 L 72.269531 490.867188 C 72.269531 502.519531 81.746094 512 93.398438 512 C 105.050781 512 114.53125 502.519531 114.53125 490.867188 L 114.53125 346.332031 C 114.53125 338.050781 121.25 331.332031 129.53125 331.332031 L 201.800781 331.332031 C 210.085938 331.335938 216.800781 338.050781 216.800781 346.335938 Z M 216.800781 346.335938 " style=" stroke:none;fill-rule:nonzero;fill:rgb(0%,0%,0%);fill-opacity:1;" />
<path d="M 487 216.800781 L 434.511719 216.800781 C 420.761719 216.800781 409.511719 228.050781 409.511719 241.800781 L 409.511719 310.199219 C 409.511719 318.484375 402.796875 325.199219 394.511719 325.199219 L 314.066406 325.199219 C 300.316406 325.199219 289.066406 336.449219 289.066406 350.199219 L 289.066406 418.601562 C 289.066406 426.882812 282.351562 433.601562 274.066406 433.601562 L 169.53125 433.601562 C 155.78125 433.601562 144.53125 444.851562 144.53125 458.601562 L 144.53125 487 C 144.53125 500.75 155.78125 512 169.53125 512 L 481.835938 512 C 498.46875 512 512 498.46875 512 481.835938 L 512 241.800781 C 512 228.050781 500.75 216.800781 487 216.800781 Z M 487 216.800781 " style=" stroke:none;fill-rule:nonzero;fill:rgb(0%,0%,0%);fill-opacity:1;" />
</g>
</svg>