<svg id="Capa_1" enable-background="new 0 0 512 512" height="512" viewBox="0 0 512 512" width="512" xmlns="http://www.w3.org/2000/svg"><circle cx="196.558" cy="70" r="70"/><path d="m246.3 435.396c-7.83-18.512-11.8-38.159-11.8-58.396s3.97-39.884 11.8-58.396c7.557-17.865 18.368-33.904 32.134-47.67s29.805-24.577 47.67-32.134c9.129-3.861 18.536-6.779 28.152-8.75-15.517-35.606-50.971-60.05-91.664-60.05h-132.068c-51.121 0-94.011 38.556-99.435 89.389l-23.416 219.428c-1.892 17.727 12.002 33.183 29.83 33.183h281.555c-15.054-7.297-28.694-17.003-40.625-28.934-13.765-13.766-24.576-29.805-32.133-47.67z"/><path d="m384.5 257c-66.274 0-120 53.726-120 120s53.726 120 120 120 120-53.726 120-120-53.726-120-120-120zm40 135h-25v25c0 8.284-6.716 15-15 15s-15-6.716-15-15v-25h-25c-8.284 0-15-6.716-15-15s6.716-15 15-15h25v-25c0-8.284 6.716-15 15-15s15 6.716 15 15v25h25c8.284 0 15 6.716 15 15s-6.716 15-15 15z"/></svg>