<svg height="512pt" viewBox="0 0 512 512" width="512pt" xmlns="http://www.w3.org/2000/svg"><path d="m317 270c41.351562 0 75-33.648438 75-75s-33.648438-75-75-75-75 33.648438-75 75c0 8.742188 1.960938 17.027344 4.828125 25.050781.234375-.007812.488281-.023437.722656-.03125h.027344c6.90625 0 13.34375 1.5 19.15625 4.046875l25.34375-25.347656c5.859375-5.859375 15.351563-5.859375 21.210937 0 5.859376 5.859375 5.859376 15.351562 0 21.210938l-24.65625 24.65625c3.171876 6.097656 5.121094 12.894531 5.148438 20.199218 0 .304688-.019531.75-.023438 1.066406 7.488282 2.457032 15.183594 4.148438 23.242188 4.148438zm0 0"/><path d="m317 0c-107.519531 0-195 87.480469-195 195 0 24.503906 4.753906 48.707031 13.628906 71.320312 6.117188-6.984374 12.042969-13.140624 17.601563-17.96875 18.140625-15.699218 40.832031-22.605468 62.746093-25.769531-2.449218-8.984375-3.976562-18.21875-3.976562-27.582031 0-57.890625 47.109375-105 105-105s105 47.109375 105 105-47.109375 105-105 105c-8.917969 0-17.582031-1.296875-26.027344-3.453125-3.433594 19.742187-10.929687 43.324219-27.324218 62.222656-4.296876 4.957031-10.574219 11.125-17.683594 17.695313 22.535156 8.804687 46.632812 13.535156 71.035156 13.535156 107.519531 0 195-87.480469 195-195s-87.480469-195-195-195zm0 0"/><path d="m54.257812 441.160156 18.703126-2.132812-2.101563 18.714844c-3.023437 26.589843 14.304687 54.257812 41.039063 54.257812 25.199218 0 43.226562-24.601562 35.175781-48.785156l-11.953125-43.898438-42.4375-42.417968h-.003906l-.003907-.007813v.003906l-43.878906-11.976562c-24.238281-8.03125-48.796875 10.0625-48.796875 35.183593 0 26.414063 27.558594 44.417969 54.257812 41.058594zm0 0"/><path d="m251.148438 323.230469c10.035156-19.917969 12.664062-43.15625 12.628906-58.34375-.015625-8.476563-6.914063-15.121094-15.390625-14.882813-15.871094.449219-39.582031 2.039063-59.355469 11.113282zm0 0"/><path d="m109.675781 351.460938 52.605469 52.609374c25.109375-16.421874 54.0625-40.105468 70.714844-56.566406l-68.34375-68.34375c-18.117188 18.886719-39.757813 49.683594-54.976563 72.300782zm0 0"/></svg>