<svg id="Capa_1" enable-background="new 0 0 512 512" height="512" viewBox="0 0 512 512" width="512" xmlns="http://www.w3.org/2000/svg"><g><path d="m451 254.999c0 8.28-6.72 15-15 15h-360c-8.28 0-15-6.72-15-15 0-24.39-21.07-45-46-45h-15v287c0 8.28 6.72 15 15 15h482c8.28 0 15-6.72 15-15v-287h-15c-24.93 0-46 20.61-46 45zm-225 77c8.28 0 15 6.72 15 15s-6.72 15-15 15-15-6.72-15-15 6.72-15 15-15zm-10.61 85.61c-5.85-5.86-5.85-15.36 0-21.22l60-60c5.86-5.85 15.36-5.85 21.22 0 5.85 5.86 5.85 15.36 0 21.22l-60 60c-5.86 5.85-15.36 5.85-21.22 0zm70.61 4.39c-8.28 0-15-6.72-15-15s6.72-15 15-15 15 6.72 15 15-6.72 15-15 15z"/><path d="m26.76 180.909 120.9-120.91h-71.66c-3.94 0-7.71 1.55-10.52 4.31l-61 60c-2.87 2.82-4.48 6.67-4.48 10.69v45h15c4 0 7.93.31 11.76.91z"/><path d="m507.52 124.309-61-60c-2.81-2.76-6.58-4.31-10.52-4.31h-71.06l50.46 50.46c17.585 17.585 17.589 46.051 0 63.64l-65.9 65.9h73.03c6.95-33.57 37.52-60 74.47-60h15v-45c0-4.02-1.61-7.87-4.48-10.69z"/><path d="m56.58 192.449c16.71 10.94 28.8 28.13 32.87 47.55h217.63l87.11-87.11c5.86-5.86 5.86-15.36 0-21.22l-127.28-127.28c-5.85-5.85-15.36-5.85-21.21 0-109.01 114.1-165.64 162.92-189.12 188.06zm252.76-60.78c5.85 5.86 5.85 15.36 0 21.22l-62.73 62.72c-5.86 5.86-15.35 5.86-21.21 0s-5.86-15.35 0-21.21l62.72-62.73c5.86-5.86 15.36-5.86 21.22 0zm-106.07 0 42.43-42.42c5.85-5.86 15.35-5.86 21.21 0 5.86 5.85 5.86 15.35 0 21.21l-42.43 42.43c-5.85 5.85-15.35 5.85-21.21 0-5.86-5.86-5.86-15.36 0-21.22z"/></g></svg>