<svg height="464pt" viewBox="0 0 464 464" width="464pt" xmlns="http://www.w3.org/2000/svg"><path d="m368 128.40625v-45.207031l32-19.199219v-64l-40 24-40-24v64l32 19.199219v45.207031c2.648438-.199219 5.296875-.40625 8-.40625s5.351562.207031 8 .40625zm0 0"/><path d="m368 128.40625v84.28125l18.34375-18.34375 11.3125 11.3125-37.65625 37.65625-37.65625-37.65625 11.3125-11.3125 18.34375 18.34375v-84.28125c-50.960938 3.90625-91.703125 44.640625-95.617188 95.59375h-64.382812v-176h-64v-48h-128v112h128v-48h48v160h-48v-48h-128v112h128v-48h48v160h-48v-48h-128v112h128v-48h64v-176h64.40625c4.113281 53.609375 48.953125 96 103.59375 96 57.34375 0 104-46.65625 104-104 0-54.640625-42.390625-99.480469-96-103.59375zm-312-48.40625h-16v-16h16zm32 0h-16v-16h16zm8-32h-64v-16h64zm-40 208h-16v-16h16zm32 0h-16v-16h16zm8-32h-64v-16h64zm-40 208h-16v-16h16zm32 0h-16v-16h16zm8-32h-64v-16h64zm240-168c0 13.230469 10.769531 24 24 24s24-10.769531 24-24h16c0 22.054688-17.945312 40-40 40s-40-17.945312-40-40zm24 88c-48.519531 0-88-39.480469-88-88 0-38.839844 24.910156-72.632812 62-84.078125l4.71875 15.277344c-30.335938 9.367187-50.71875 37.015625-50.71875 68.800781 0 39.703125 32.296875 72 72 72s72-32.296875 72-72c0-31.785156-20.382812-59.433594-50.71875-68.800781l4.71875-15.277344c37.089844 11.445313 62 45.230469 62 84.078125 0 48.527344-39.480469 88-88 88zm0 0"/></svg>