<svg height="511pt" viewBox="1 0 511.999 511" width="511pt" xmlns="http://www.w3.org/2000/svg"><path d="m283.03125 228.757812c.007812-.179687.007812-.347656.019531-.53125h-140.550781c.75 21.808594 3.117188 42.945313 7.078125 63.011719 1.03125 5.242188 2.171875 10.339844 3.398437 15.308594 21.6875-3.367187 43.535157-4.886719 65.371094-4.578125 8.390625-18.226562 19.859375-34.675781 34.15625-48.964844 9.300782-9.296875 19.507813-17.40625 30.527344-24.246094zm0 0"/><path d="m168.875 73.648438c-2.546875 5.453124-4.925781 11.207031-7.136719 17.246093 33.910157 4.867188 68.179688 4.867188 102.074219 0-2.210938-6.039062-4.589844-11.792969-7.136719-17.246093-13.175781-28.230469-30-45.765626-43.902343-45.765626-13.902344 0-30.722657 17.539063-43.898438 45.765626zm0 0"/><path d="m212.78125 124.546875c-19.976562 0-39.953125-1.558594-59.808594-4.648437-1.222656 4.976562-2.359375 10.082031-3.394531 15.320312-3.960937 20.070312-6.332031 41.203125-7.074219 63.007812h140.542969c-.742187-21.804687-3.113281-42.941406-7.074219-63.007812-1.035156-5.238281-2.171875-10.34375-3.394531-15.320312-19.84375 3.089843-39.820313 4.648437-59.796875 4.648437zm0 0"/><path d="m293.652344 85.34375c23.289062-5.3125 46.722656-12.9375 70.078125-22.8125-35.160157-35.222656-82.570313-58.207031-135.292969-62.03125 26.660156 8.9375 49.847656 40.316406 65.214844 84.84375zm0 0"/><path d="m313.050781 198.226562h112.496094c-2.902344-41.757812-17.816406-80.203124-41.324219-111.90625-27.296875 12.171876-54.796875 21.496094-82.171875 27.863282 6.171875 25.460937 10.03125 53.898437 11 84.042968zm0 0"/><path d="m161.738281 335.5625c2.207031 6.039062 4.589844 11.789062 7.136719 17.25 10.648438 22.804688 23.675781 38.632812 35.617188 43.863281-1.101563-7.828125-1.652344-15.757812-1.652344-23.789062 0-13.9375 1.671875-27.625 4.972656-40.933594-15.390625.210937-30.777344 1.410156-46.074219 3.609375zm0 0"/><path d="m197.113281.5c-52.660156 3.820312-100.019531 26.75-135.167969 61.898438-.042968.046874-.085937.089843-.128906.132812 23.351563 9.875 46.792969 17.5 70.082032 22.808594 15.367187-44.523438 38.554687-75.902344 65.214843-84.839844zm0 0"/><path d="m131.894531 341.109375c-23.296875 5.3125-46.734375 12.941406-70.078125 22.816406.046875.042969.085938.089844.128906.132813 2.414063 2.410156 4.882813 4.765625 7.410157 7.0625 2.328125 2.117187 4.710937 4.179687 7.136719 6.191406 5.453124 4.535156 11.128906 8.808594 17.023437 12.792969 3.363281 2.269531 6.804687 4.4375 10.300781 6.519531 27.671875 16.476562 59.386719 26.875 93.304688 29.335938-26.667969-8.933594-49.855469-40.320313-65.226563-84.851563zm0 0"/><path d="m123.5 114.179688c-27.378906-6.363282-54.878906-15.6875-82.179688-27.859376-.84375 1.136719-1.675781 2.277344-2.496093 3.429688-5.945313 8.363281-11.308594 17.175781-16.015625 26.371094-1.035156 2.023437-2.027344 4.070312-3 6.125-2.433594 5.15625-4.667969 10.421875-6.6875 15.789062-4.523438 12.003906-8.011719 24.515625-10.316406 37.4375-.3125 1.75-.605469 3.507813-.875 5.273438-.808594 5.296875-1.421876 10.65625-1.835938 16.074218-.0351562.46875-.0625.9375-.09375 1.410157h112.5c.964844-30.148438 4.828125-58.585938 11-84.050781zm0 0"/><path d="m112.496094 228.222656h-112.4882815c.9101565 13.132813 2.9960935 25.945313 6.1796875 38.316406 1.753906 6.8125 3.835938 13.5 6.226562 20.03125 2.394532 6.535157 5.09375 12.917969 8.089844 19.136719 1.007813 2.089844 2.0625 4.15625 3.136719 6.207031 1.03125 1.976563 2.097656 3.9375 3.1875 5.878907.617187 1.089843 1.242187 2.179687 1.875 3.257812 2.550781 4.347657 5.25 8.59375 8.09375 12.734375 1.472656 2.144532 2.980469 4.265625 4.527344 6.355469 27.289062-12.175781 54.789062-21.5 82.171875-27.867187-6.167969-25.46875-10.03125-53.90625-11-84.050782zm0 0"/><path d="m372.457031 233.335938c-77.070312 0-139.550781 62.484374-139.550781 139.550781 0 77.0625 62.480469 139.542969 139.550781 139.542969 77.058594 0 139.542969-62.480469 139.542969-139.542969 0-77.066407-62.484375-139.550781-139.542969-139.550781zm22.40625 199.5625h-7.40625v14.570312h-29.996093v-14.570312h-29.925782v-29.992188h67.320313c4.078125 0 7.519531-3.441406 7.519531-7.511719 0-4.070312-3.441406-7.519531-7.511719-7.519531h-44.8125c-20.6875 0-37.515625-16.816406-37.515625-37.503906 0-20.675782 16.828125-37.503906 37.515625-37.503906h7.480469v-14.648438h29.996094v14.648438h29.84375v29.996093h-67.320313c-4.078125 0-7.519531 3.4375-7.519531 7.507813 0 4.070312 3.441406 7.507812 7.519531 7.507812h44.8125c20.679688 0 37.507813 16.828125 37.507813 37.515625 0 20.679688-16.828125 37.503907-37.507813 37.503907zm0 0"/></svg>