<svg height="512" viewBox="0 0 64 64" width="512" xmlns="http://www.w3.org/2000/svg"><path d="m48 5a1 1 0 0 0 -1-1h-3v1a3 3 0 0 1 -3 3h-18a3 3 0 0 1 -3-3v-1h-3a1 1 0 0 0 -1 1v5h32z"/><path d="m49 36a7 7 0 1 0 -7-7 7.008 7.008 0 0 0 7 7zm-3-4h4v-2h-2a2 2 0 0 1 -2-2v-2a2 2 0 0 1 2-2v-1h2v1h2v2h-4v2h2a2 2 0 0 1 2 2v2a2 2 0 0 1 -2 2v1h-2v-1h-2z"/><path d="m4 51a1 1 0 0 0 1 1h54a1 1 0 0 0 1-1v-33h-56zm54-5h-8v-2h8zm0-4h-4v-2h4zm-9-22a9 9 0 1 1 -9 9 9.01 9.01 0 0 1 9-9zm-9 20h12v2h-12zm0 4h8v2h-8zm0 4h18v2h-18zm-34-2a2 2 0 0 1 2-2h1v-12h-2a1 1 0 0 1 -.609-1.792l13-10a1 1 0 0 1 1.218 0l13 10a1 1 0 0 1 -.609 1.792h-2v12h1a2 2 0 0 1 2 2v2a2 2 0 0 1 -2 2h-24a2 2 0 0 1 -2-2z"/><path d="m20 22.262-10.06 7.738h20.12z"/><path d="m27 32h2v12h-2z"/><path d="m15 32h10v12h-10z"/><path d="m11 32h2v12h-2z"/><path d="m8 46h24v2h-24z"/><path d="m23 6h18a1 1 0 0 0 1-1v-1h-20v1a1 1 0 0 0 1 1z"/><path d="m59 12h-54a1 1 0 0 0 -1 1v3h56v-3a1 1 0 0 0 -1-1zm-51 3h-2v-2h2zm4 0h-2v-2h2zm4 0h-2v-2h2z"/><path d="m16 59a1 1 0 0 0 1 1h30a1 1 0 0 0 1-1v-5h-32z"/></svg>