<svg id="Capa_1" enable-background="new 0 0 512 512" height="512" viewBox="0 0 512 512" width="512" xmlns="http://www.w3.org/2000/svg"><path d="m76 346v-180c0-33.084 26.916-60 60-60h210v-30h-330v360h330v-30h-210c-33.084 0-60-26.916-60-60z"/><path d="m61 512h240c23.485 0 45-18.496 45-46h-330c0 27.251 21.265 46 45 46z"/><path d="m301 0h-240c-23.626 0-45 18.633-45 46h330c0-27.251-21.265-46-45-46z"/><path d="m406 161v-25h-210v25c0 35.841-29.159 65-65 65h-25v60h25c35.841 0 65 29.159 65 65v25h210v-25c0-35.841 29.159-65 65-65h25v-60h-25c-35.841 0-65-29.159-65-65zm-105 155c-33.084 0-60-26.916-60-60s26.916-60 60-60 60 26.916 60 60-26.916 60-60 60z"/><path d="m466 136h-30v25c0 19.299 15.701 35 35 35h25v-30c0-16.542-13.458-30-30-30z"/><circle cx="301" cy="256" r="30"/><path d="m436 351v25h30c16.542 0 30-13.458 30-30v-30h-25c-19.299 0-35 15.701-35 35z"/><path d="m106 166v30h25c19.299 0 35-15.701 35-35v-25h-30c-16.542 0-30 13.458-30 30z"/><path d="m136 376h30v-25c0-19.299-15.701-35-35-35h-25v30c0 16.542 13.458 30 30 30z"/></svg>